<?xml version="1.0" encoding="UTF-8"?>
<!-- Imagen de ejemplo (placeholder). Reemplazar por una fotografia real. -->
<svg xmlns="http://www.w3.org/2000/svg" width="1200" height="800" viewBox="0 0 1200 800">
<defs>
  <linearGradient id="sky" x1="0" y1="0" x2="0" y2="1">
    <stop offset="0" stop-color="#F5EEE3"/><stop offset="1" stop-color="#EADFCD"/>
  </linearGradient>
  <linearGradient id="water" x1="0" y1="0" x2="0" y2="1">
    <stop offset="0" stop-color="#C9DBD6"/><stop offset="1" stop-color="#9EBDB7"/>
  </linearGradient>
  <linearGradient id="wall" x1="0" y1="0" x2="0" y2="1">
    <stop offset="0" stop-color="#F4EDE2"/><stop offset="1" stop-color="#EADFCE"/>
  </linearGradient></defs>
<rect width="1200" height="800" fill="url(#sky)"/><circle cx="885" cy="215" r="62" fill="#FBF5EB"/><path d="M0,430 C120,360 220,300 340,350 C440,392 520,280 640,300 C760,320 820,382 940,340 C1040,305 1120,330 1200,310 L1200,800 L0,800 Z" fill="#DDCFB9"/><path d="M0,520 C140,450 260,420 380,470 C500,520 600,430 720,440 C860,452 940,520 1060,480 C1120,460 1170,468 1200,475 L1200,800 L0,800 Z" fill="#BCC5AD"/><path d="M0,592 C300,570 900,575 1200,594 L1200,800 L0,800 Z" fill="#AFBA9F"/>
    <g transform="translate(100,610) scale(1)"><rect x="-4" y="-18" width="8" height="18" fill="#7A6250"/><path d="M0,-110 L32,-18 L-32,-18 Z" fill="#7F9074"/></g><g transform="translate(360,626) scale(0.8)">
  <rect x="-140" y="-140" width="280" height="140" fill="#A58262"/>
  <path d="M-140,-105 H140 M-140,-70 H140 M-140,-35 H140" stroke="#937256" stroke-width="3"/>
  <path d="M-168,-128 L0,-242 L168,-128 Z" fill="#6F5641"/>
  <rect x="-22" y="-92" width="44" height="92" fill="#5E4735"/>
  <rect x="-112" y="-102" width="60" height="46" rx="3" fill="#F4E6CC"/>
  <rect x="52" y="-102" width="60" height="46" rx="3" fill="#F4E6CC"/>
</g>
    <path d="M590,622 H1010 L1050,668 H550 Z" fill="#E3D5C1"/>
    <rect x="618" y="462" width="12" height="164" fill="#7A6250"/>
    <rect x="964" y="462" width="12" height="164" fill="#7A6250"/>
    <path d="M596,448 H1000 L1010,470 H586 Z" fill="#6F5641"/>
    <path d="M708,550 C724,506 744,500 790,500 C838,500 854,510 874,550 Z" fill="#C2B39E"/>
    <rect x="662" y="546" width="264" height="62" rx="26" fill="#D3C6B4"/>
    <circle cx="718" cy="608" r="22" fill="#5E5550"/><circle cx="870" cy="608" r="22" fill="#5E5550"/>
    <g transform="translate(1110,640) scale(1)"><rect x="-5" y="-40" width="10" height="40" fill="#7A6250"/><circle cx="0" cy="-70" r="42" fill="#8C9D80"/><circle cx="-26" cy="-52" r="26" fill="#8C9D80"/><circle cx="26" cy="-50" r="28" fill="#8C9D80"/></g>
<g transform="translate(600,655)">
  <rect x="-225" y="-62" width="450" height="124" rx="62" fill="#FFFFFF" fill-opacity="0.88"/>
  <text y="-14" text-anchor="middle" font-family="Helvetica, Arial, sans-serif" font-size="18" letter-spacing="5" fill="#8B6A4F">FOTO DE EJEMPLO</text>
  <text y="34" text-anchor="middle" font-family="Georgia, 'Times New Roman', serif" font-size="40" fill="#3A2F28">Cochera</text>
</g>
</svg>
