<?xml version="1.0" encoding="UTF-8"?>
<!-- Imagen de ejemplo (placeholder). Reemplazar por una fotografia real. -->
<svg xmlns="http://www.w3.org/2000/svg" width="1200" height="800" viewBox="0 0 1200 800">
<defs>
  <linearGradient id="sky" x1="0" y1="0" x2="0" y2="1">
    <stop offset="0" stop-color="#F5EEE3"/><stop offset="1" stop-color="#EADFCD"/>
  </linearGradient>
  <linearGradient id="water" x1="0" y1="0" x2="0" y2="1">
    <stop offset="0" stop-color="#C9DBD6"/><stop offset="1" stop-color="#9EBDB7"/>
  </linearGradient>
  <linearGradient id="wall" x1="0" y1="0" x2="0" y2="1">
    <stop offset="0" stop-color="#F4EDE2"/><stop offset="1" stop-color="#EADFCE"/>
  </linearGradient></defs>
<rect width="1200" height="800" fill="url(#sky)"/><circle cx="885" cy="215" r="62" fill="#FBF5EB"/><path d="M0,430 C120,360 220,300 340,350 C440,392 520,280 640,300 C760,320 820,382 940,340 C1040,305 1120,330 1200,310 L1200,800 L0,800 Z" fill="#DDCFB9"/><path d="M0,520 C140,450 260,420 380,470 C500,520 600,430 720,440 C860,452 940,520 1060,480 C1120,460 1170,468 1200,475 L1200,800 L0,800 Z" fill="#BCC5AD"/><path d="M0,610 C160,570 300,590 460,600 C640,612 780,560 940,575 C1060,586 1140,600 1200,590 L1200,800 L0,800 Z" fill="#9EAC91"/>
    <path d="M470,800 C520,720 640,700 600,650 C570,615 660,600 700,585 L716,592 C690,606 620,622 648,652 C700,705 610,740 610,800 Z" fill="#EADBC3"/>
    <g transform="translate(260,700) scale(1)"><rect x="-4" y="-18" width="8" height="18" fill="#7A6250"/><path d="M0,-110 L32,-18 L-32,-18 Z" fill="#7F9074"/></g><g transform="translate(330,690) scale(0.8)"><rect x="-4" y="-18" width="8" height="18" fill="#7A6250"/><path d="M0,-110 L32,-18 L-32,-18 Z" fill="#7F9074"/></g><g transform="translate(900,700) scale(1.1)"><rect x="-5" y="-40" width="10" height="40" fill="#7A6250"/><circle cx="0" cy="-70" r="42" fill="#8C9D80"/><circle cx="-26" cy="-52" r="26" fill="#8C9D80"/><circle cx="26" cy="-50" r="28" fill="#8C9D80"/></g>
<g transform="translate(600,655)">
  <rect x="-225" y="-62" width="450" height="124" rx="62" fill="#FFFFFF" fill-opacity="0.88"/>
  <text y="-14" text-anchor="middle" font-family="Helvetica, Arial, sans-serif" font-size="18" letter-spacing="5" fill="#8B6A4F">FOTO DE EJEMPLO</text>
  <text y="34" text-anchor="middle" font-family="Georgia, 'Times New Roman', serif" font-size="40" fill="#3A2F28">Entorno</text>
</g>
</svg>
