<?xml version="1.0" encoding="UTF-8"?>
<!-- Imagen de ejemplo (placeholder). Reemplazar por una fotografia real. -->
<svg xmlns="http://www.w3.org/2000/svg" width="1200" height="800" viewBox="0 0 1200 800">
<defs>
  <linearGradient id="sky" x1="0" y1="0" x2="0" y2="1">
    <stop offset="0" stop-color="#F5EEE3"/><stop offset="1" stop-color="#EADFCD"/>
  </linearGradient>
  <linearGradient id="water" x1="0" y1="0" x2="0" y2="1">
    <stop offset="0" stop-color="#C9DBD6"/><stop offset="1" stop-color="#9EBDB7"/>
  </linearGradient>
  <linearGradient id="wall" x1="0" y1="0" x2="0" y2="1">
    <stop offset="0" stop-color="#F4EDE2"/><stop offset="1" stop-color="#EADFCE"/>
  </linearGradient></defs>
<rect width="1200" height="800" fill="url(#sky)"/><circle cx="885" cy="215" r="62" fill="#FBF5EB"/>
    <path d="M0,400 C100,320 200,230 320,280 C420,320 520,200 660,220 C780,238 840,320 960,280 C1060,248 1130,270 1200,250 L1200,800 L0,800 Z" fill="#DDCFB9"/>
    <path d="M0,520 C140,450 260,420 380,470 C500,520 600,430 720,440 C860,452 940,520 1060,480 C1120,460 1170,468 1200,475 L1200,800 L0,800 Z" fill="#BCC5AD"/><path d="M0,610 C160,570 300,590 460,600 C640,612 780,560 940,575 C1060,586 1140,600 1200,590 L1200,800 L0,800 Z" fill="#9EAC91"/>
    <g transform="translate(160,612) scale(0.5)"><rect x="-4" y="-18" width="8" height="18" fill="#7A6250"/><path d="M0,-110 L32,-18 L-32,-18 Z" fill="#7F9074"/></g><g transform="translate(200,606) scale(0.4)"><rect x="-4" y="-18" width="8" height="18" fill="#7A6250"/><path d="M0,-110 L32,-18 L-32,-18 Z" fill="#7F9074"/></g><g transform="translate(1010,584) scale(0.5)"><rect x="-4" y="-18" width="8" height="18" fill="#7A6250"/><path d="M0,-110 L32,-18 L-32,-18 Z" fill="#7F9074"/></g>
<g transform="translate(600,655)">
  <rect x="-225" y="-62" width="450" height="124" rx="62" fill="#FFFFFF" fill-opacity="0.88"/>
  <text y="-14" text-anchor="middle" font-family="Helvetica, Arial, sans-serif" font-size="18" letter-spacing="5" fill="#8B6A4F">FOTO DE EJEMPLO</text>
  <text y="34" text-anchor="middle" font-family="Georgia, 'Times New Roman', serif" font-size="40" fill="#3A2F28">Sierras</text>
</g>
</svg>
